# xmcd CD database file
#
# Track frame offsets:
#	150
#	19760
#	40807
#	61095
#	75370
#	89052
#	112835
#	127120
#	145150
#	160592
#
# Disc length: 2463 seconds
#
# Revision: 0
# Processed by: cddbd v1.5PL3 Copyright (c) Steve Scherf et al.
# Submitted via: cdripper 1.0.7
#
DISCID=75099d0a
DTITLE=Al Garrett - Out of Bad Luck
DYEAR=1999
DGENRE=Blues
TTITLE0=Out of Bad Luck
TTITLE1=Blues for Big Town
TTITLE2=Blue Shadows
TTITLE3=You Give Me Nothing But the Blues
TTITLE4=I Just Got to Know
TTITLE5=Last Night
TTITLE6=Please Love Me
TTITLE7=Cummins Prison Farm
TTITLE8=May I Have a Talk With You
TTITLE9=Sail On
EXTD=YEAR: 1999
EXTT0=
EXTT1=
EXTT2=
EXTT3=
EXTT4=
EXTT5=
EXTT6=
EXTT7=
EXTT8=
EXTT9=
PLAYORDER=
